<svg width="21" height="21" viewBox="0 0 21 21" fill="none" xmlns="http://www.w3.org/2000/svg">
<path d="M10.5 2C5.81158 2 2 5.81158 2 10.5C2 15.1884 5.81158 19 10.5 19C15.1884 19 19 15.1884 19 10.5C19 5.81158 15.1884 2 10.5 2ZM9.42632 13.0411C9.42632 13.7747 8.83579 14.3653 8.10211 14.3653C7.36842 14.3653 6.77789 13.7747 6.77789 13.0411V7.95895C6.77789 7.22526 7.36842 6.63474 8.10211 6.63474C8.83579 6.63474 9.42632 7.22526 9.42632 7.95895V13.0411ZM14.2221 13.0411C14.2221 13.7747 13.6316 14.3653 12.8979 14.3653C12.1642 14.3653 11.5737 13.7747 11.5737 13.0411V7.95895C11.5737 7.22526 12.1642 6.63474 12.8979 6.63474C13.6316 6.63474 14.2221 7.22526 14.2221 7.95895V13.0411Z" fill="white"/>
</svg>
